<?xml version="1.0" encoding="utf-8"?>
<!-- Svg Vector Icons : http://www.onlinewebfonts.com/icon -->
<!DOCTYPE svg PUBLIC "-//W3C//DTD SVG 1.1//EN" "http://www.w3.org/Graphics/SVG/1.1/DTD/svg11.dtd">
<svg version="1.1" xmlns="http://www.w3.org/2000/svg" xmlns:xlink="http://www.w3.org/1999/xlink" x="0px" y="0px" viewBox="0 0 1000 1000" enable-background="new 0 0 1000 1000" xml:space="preserve">
<metadata> Svg Vector Icons : http://www.onlinewebfonts.com/icon </metadata>
<g><g transform="translate(0.000000,511.000000) scale(0.100000,-0.100000)"><path d="M4432.6,4131.7C2717.3,3951,1345.1,3359.9,628.4,2496.1c-229.7-275.7-428.8-686.1-487-1010.8C55.6,1025.9,120,731.8,361.9,486.8l110.3-110.3l-113.3-94.9C144.5,107,40.3-242.2,141.4-441.3c64.3-119.5,242-269.6,352.2-294.1c82.7-18.4,95-33.7,95-116.4c0-122.5,98-287.9,199.1-333.9c95-42.9,95-67.4,0-110.3c-159.3-73.5-202.2-199.1-196-585l3.1-346.1l-116.4-55.1c-147-64.3-300.2-232.8-349.2-385.9C0.5-3054,312.9-3626.7,766.2-3838.1l174.6-82.7h4058.4h4058.4l174.6,82.7C9685.6-3626.7,9998-3054,9869.4-2668c-49,153.1-202.1,321.6-349.2,385.9l-116.4,55.1l3.1,346.1c6.1,385.9-36.8,511.5-196,585c-94.9,42.9-94.9,67.4,0,110.3c101.1,45.9,199.1,211.4,199.1,333.9c0,82.7,12.3,98,94.9,116.4C9707-689.4,9900-441.3,9900-223.8c0,150.1-128.7,398.2-260.4,505.4l-113.3,94.9l110.3,110.3c242,245,309.3,545.2,220.5,1001.6c-64.3,327.7-263.4,741.2-490.1,1013.8C8733,3268,7501.7,3849.9,6040.7,4073.5C5731.3,4119.5,4689.9,4159.3,4432.6,4131.7z M6037.6,3828.5C7226,3657,8301.1,3206.7,8932.1,2615.6c367.6-343,575.8-689.2,673.9-1121c113.3-508.4,18.4-814.7-303.3-961.8c-116.4-55.1-303.2-58.2-4303.5-58.2c-3991,0-4187.1,3.1-4303.5,58.2c-263.4,119.5-370.6,340-343.1,713.7c39.8,483.9,232.8,872.9,634,1283.4c725.9,735.1,1874.5,1188.4,3445.8,1356.9C4689.9,3914.3,5703.7,3877.5,6037.6,3828.5z M9406.9,152.9c147-85.8,220.5-199.1,238.9-361.4c15.3-119.5,6.1-150.1-61.3-217.5c-119.5-119.5-251.2-107.2-370.6,33.7C8932.1-55.3,8803.5,15.1,8567.6-27.8c-104.2-21.4-205.2-104.2-438-364.5c-137.8-156.2-254.2-156.2-385.9,0C7461.9-55.3,7333.3,15.1,7097.4-27.8c-104.2-21.4-205.2-104.2-438-364.5c-137.8-156.2-254.3-156.2-386,0C5991.6-55.3,5863,15.1,5627.2-27.8c-104.2-21.4-205.2-104.2-438-364.5c-137.9-156.2-254.3-156.2-386,0C4521.4-55.3,4392.8,15.1,4156.9-27.8c-104.1-21.4-205.2-104.2-438-364.5c-137.8-156.2-254.2-156.2-385.9,0C3051.2-55.3,2922.6,15.1,2686.7-27.8c-104.1-21.4-205.2-104.2-438-364.5c-137.8-156.2-254.2-156.2-385.9,0C1581-55.3,1452.3,15.1,1216.5-27.8c-104.1-21.4-205.2-104.2-438-364.5C656-530.1,533.5-542.4,420.1-429C300.7-312.6,334.4-52.3,490.6,85.5c162.3,147,27.6,140.9,4554.6,134.8C9241.5,214.2,9302.7,214.2,9406.9,152.9z M1519.7-373.9c281.8-336.9,410.4-407.4,646.3-364.5c107.2,21.5,232.8,128.7,431.9,364.5c131.7,156.2,260.4,156.2,392.1,0c281.8-336.9,410.4-407.4,646.3-364.5c107.2,21.5,232.8,128.7,431.9,364.5c73.5,88.8,116.4,113.3,196,113.3c79.6,0,122.5-24.5,196-113.3c281.8-336.9,410.4-407.4,646.3-364.5c107.2,21.5,232.8,128.7,431.9,364.5c131.7,156.2,260.4,156.2,392.1,0c281.8-336.9,410.4-407.4,646.3-364.5c107.2,21.5,232.8,128.7,431.9,364.5c131.7,156.2,260.3,156.2,392.1,0c199.1-235.8,324.7-343,431.9-364.5c235.8-42.9,364.5,27.5,646.3,364.5c131.7,156.2,260.4,156.2,392.1,0c52-61.3,140.9-159.3,196-217.5c73.5-79.6,98-131.7,98-217.5c0-61.3-15.3-128.7-36.8-150.1c-52.1-52.1-8205.7-52.1-8257.7,0c-21.4,21.4-36.8,88.8-36.8,150.1c0,85.8,24.5,137.8,101.1,217.5c52.1,58.2,140.9,156.2,193,217.5C1259.4-217.7,1388-217.7,1519.7-373.9z M3979.3-1936L3284-2634.4L2588.7-1936l-698.3,695.3H3284h1393.6L3979.3-1936z M7409.8-1936l-695.3-698.3L6019.2-1936l-698.3,695.3h1393.7h1393.6L7409.8-1936z M2104.8-1853.3l367.6-367.6h-784.1c-566.6,0-790.2,9.2-817.8,36.8c-49,49-49,612.6,0,661.6c24.5,24.5,168.5,36.8,453.3,36.8h413.5L2104.8-1853.3z M5535.3-1853.3l367.5-367.6h-903.6h-903.6l367.6,367.6l367.6,367.5h168.5h168.5L5535.3-1853.3z M9128.1-1522.5c49-49,49-612.6,0-661.6c-27.5-27.6-251.2-36.8-817.8-36.8h-784.1l367.6,367.6l367.5,367.5h413.5C8959.7-1485.8,9103.6-1498,9128.1-1522.5z M2980.8-2726.2c144-144,281.8-260.4,303.2-260.4c21.4,0,159.3,116.4,303.2,260.4l266.5,260.4h1145.5h1145.5l266.5-260.4c144-144,281.8-260.4,303.3-260.4c21.4,0,159.3,116.4,303.2,260.4l266.5,260.4h1050.6c876,0,1062.8-6.1,1136.3-45.9c272.6-140.9,235.8-615.6-73.5-921.9c-272.6-275.7,58.2-257.3-4398.4-257.3c-4456.6,0-4125.8-18.4-4398.4,257.3c-306.3,303.2-346.1,774.9-79.6,918.9c67.4,39.8,263.4,45.9,1136.4,49h1056.7L2980.8-2726.2z"/><path d="M4585.7,3093.4c-49-45.9-76.6-110.3-76.6-168.5c0-116.4,119.5-245,229.7-245s229.7,128.6,229.7,245s-119.5,245-229.7,245C4696,3170,4625.6,3136.3,4585.7,3093.4z"/><path d="M7281.2,2848.3c-49-45.9-76.6-110.3-76.6-168.5c0-116.4,119.5-245,229.7-245s229.7,128.7,229.7,245c0,116.4-119.5,245-229.7,245C7391.4,2924.9,7321,2891.2,7281.2,2848.3z"/><path d="M2135.4,2358.3c-49-45.9-76.6-110.3-76.6-168.5c0-116.4,119.5-245,229.7-245s229.7,128.7,229.7,245s-119.5,245-229.7,245C2245.7,2434.9,2175.2,2401.2,2135.4,2358.3z"/><path d="M5811,2358.3c-49-45.9-76.6-110.3-76.6-168.5c0-116.4,119.4-245,229.7-245c110.3,0,229.7,128.7,229.7,245s-119.5,245-229.7,245C5921.2,2434.9,5850.8,2401.2,5811,2358.3z"/><path d="M3605.6,1623.2c-49-45.9-76.6-110.3-76.6-168.5c0-116.4,119.5-245,229.7-245c110.3,0,229.7,128.7,229.7,245s-119.5,245-229.7,245C3715.9,1699.7,3645.4,1666,3605.6,1623.2z"/><path d="M910.2,1378.1c-49-45.9-76.6-110.3-76.6-168.5c0-116.4,119.5-245,229.7-245c110.3,0,229.7,128.7,229.7,245s-119.5,245-229.7,245C1020.5,1454.7,950,1421,910.2,1378.1z"/><path d="M8506.4,1378.1c-49-45.9-76.6-110.3-76.6-168.5c0-116.4,119.5-245,229.7-245s229.7,128.7,229.7,245s-119.5,245-229.7,245C8616.6,1454.7,8546.2,1421,8506.4,1378.1z"/></g></g>
</svg>